# xmcd CD database file
#
# Track frame offsets:
#	150
#	28814
#	52997
#	75404
#	90870
#	118092
#	141340
#	177527
#
# Disc length: 2919 seconds
#
# Revision: 0
# Processed by: cddbd v1.5.2PL0 Copyright (c) Steve Scherf et al.
# Submitted via: CDex 1.51
#
DISCID=610b6508
DTITLE=Vörös Niki - Ask Yourself Why
DYEAR=2012
DGENRE=Jazz
TTITLE0=I Will Wait for You
TTITLE1=The Windmills of Your Mind
TTITLE2=The Summer Knows
TTITLE3=Watch What Happens
TTITLE4=Once Upon a Summertime
TTITLE5=Sea and Sky
TTITLE6=His Eyes, Her Eyes
TTITLE7=Ask Yourself Why
EXTD=YEAR: 2012
EXTT0=
EXTT1=
EXTT2=
EXTT3=
EXTT4=
EXTT5=
EXTT6=
EXTT7=
PLAYORDER=
